<?xml version="1.0" encoding="UTF-8"?>
<svg width="234px" height="38px" viewBox="0 0 234 38" version="1.1" xmlns="http://www.w3.org/2000/svg" xmlns:xlink="http://www.w3.org/1999/xlink">
    <g id="Page-1" stroke="none" stroke-width="1" fill="none" fill-rule="evenodd">
        <g id="Group-2" transform="translate(0.000000, -5.000000)" fill="#FFFFFF">
            <g id="9c403102c1564a3330f8a693b16aeea4" transform="translate(0.000000, 5.000000)">
                <g id="Group" transform="translate(26.367188, 19.000000) scale(-1, 1) rotate(-180.000000) translate(-26.367188, -19.000000) ">
                    <path d="M27.0764034,35.7197796 L25.6095974,33.4274362 L30.1089309,30.3195476 L34.6082645,27.1951276 L17.2964623,27.1444316 L0,27.1097158 L0,24.3925174 L0,21.6758701 L25.8703746,21.6758701 C40.1015139,21.6758701 51.6751582,21.7436485 51.5936984,21.8114269 C51.4958408,21.8962877 47.8444301,24.4773782 43.4429541,27.5345708 C39.0578759,30.6082947 33.9068636,34.2082657 31.9994339,35.550058 L28.5437384,37.9955916 L27.0764034,35.7197796 Z" id="Path"></path>
                    <path d="M0.325839347,16.0039733 C0.635280934,15.7152262 22.9357047,0.126189095 23.2128797,0.00716357309 C23.3271351,-0.0435324826 23.9465472,0.771461717 24.8267366,2.12978538 L26.2284805,4.33726798 L25.217638,5.08448376 C24.663288,5.49225638 22.6257341,6.93544084 20.7019067,8.27723318 L17.1970179,10.7227668 L34.5252178,10.7734629 L51.83702,10.8076276 L51.83702,13.524826 L51.83702,16.2420244 L25.9677033,16.2420244 C4.18936303,16.2414733 0.130124155,16.2073086 0.325839347,16.0039733 Z" id="Path"></path>
                </g>
            </g>
            <text id="converter" font-family="Montserrat-SemiBold, Montserrat" font-size="34" font-weight="500">
                <tspan x="66" y="33">converter</tspan>
            </text>
        </g>
    </g>
</svg>