<?xml version="1.0" standalone="no"?>
<!DOCTYPE svg PUBLIC "-//W3C//DTD SVG 20010904//EN"
 "http://www.w3.org/TR/2001/REC-SVG-20010904/DTD/svg10.dtd">
<svg version="1.0" xmlns="http://www.w3.org/2000/svg"
 width="700.000000pt" height="700.000000pt" viewBox="0 0 700.000000 700.000000"
 preserveAspectRatio="xMidYMid meet">
<metadata>
Created by potrace 1.11, written by Peter Selinger 2001-2013
</metadata>
<g transform="translate(0.000000,700.000000) scale(0.100000,-0.100000)"
fill="#000000" stroke="none">
<path d="M3810 5857 c-19 -28 -38 -54 -41 -57 -3 -3 -8 -9 -10 -15 -2 -5 -58
-91 -125 -190 -66 -99 -133 -199 -147 -222 l-26 -42 237 -157 c705 -467 942
-627 939 -630 -3 -3 -2804 -12 -4139 -14 l-428 0 0 -346 0 -346 3303 5 c3095
6 3502 8 3511 18 2 2 -51 41 -117 86 -67 45 -230 154 -362 243 -415 280 -1225
824 -1249 840 -29 18 -616 414 -1018 686 -158 107 -289 194 -290 194 -2 0 -19
-24 -38 -53z"/>
<path d="M608 3145 c-2 -2 -110 -5 -242 -8 -131 -3 -241 -8 -244 -12 -8 -8 -6
-9 188 -140 96 -65 209 -142 250 -170 41 -28 235 -159 430 -290 195 -131 470
-316 610 -410 237 -160 1257 -840 1451 -968 47 -31 90 -57 95 -57 19 0 100
108 265 353 102 151 127 194 117 203 -23 21 -476 330 -980 667 -108 72 -196
132 -195 134 2 2 2941 10 4275 13 l302 0 0 346 0 345 -3160 -2 c-1738 -1
-3161 -3 -3162 -4z"/>
</g>
</svg>
